<svg height="511pt" viewBox="0 -71 511.999 511" width="511pt" xmlns="http://www.w3.org/2000/svg"><path d="M255.98 370.492h-.136c-15.45-.105-152.028-1.351-190.723-11.816-27.043-7.27-48.39-28.594-55.68-55.64C-.684 265.022-.039 191.84.031 185.995c-.066-5.816-.719-79.605 9.38-117.93.01-.035.019-.074.03-.109 7.207-26.738 29.036-48.723 55.614-56.012.066-.02.136-.035.203-.054C103.516 1.836 240.363.605 255.844.5h.277c15.488.105 152.43 1.352 190.77 11.832 26.972 7.25 48.304 28.547 55.613 55.559 10.504 38.351 9.531 112.3 9.426 118.543.074 6.148.687 78.675-9.38 116.878-.007.04-.019.075-.027.11-7.293 27.047-28.636 48.371-55.71 55.648-.036.012-.075.02-.11.032-38.254 10.05-175.105 11.28-190.582 11.39h-.14zM48.074 78.324c-8.89 33.828-8.05 106.676-8.043 107.41v.528c-.265 20.203.668 78.71 8.047 106.422 3.578 13.27 14.106 23.78 27.457 27.37 28.55 7.723 139.79 10.153 180.445 10.438 40.762-.285 152.165-2.648 180.504-10.062 13.309-3.602 23.801-14.078 27.403-27.364 7.386-28.117 8.312-86.34 8.043-106.414 0-.21 0-.422.004-.632.367-20.446-.356-79.637-8.012-107.57a.624.624 0 01-.02-.083c-3.593-13.328-14.125-23.84-27.476-27.43-28.274-7.73-139.692-10.152-180.446-10.437-40.734.285-152.027 2.645-180.453 10.05-13.097 3.634-23.863 14.52-27.453 27.774zM483.211 298.22h.012zM205 266.492V104.496l140 81zm0 0"/></svg>